<svg width="16" height="16" viewBox="0 0 16 16" fill="none" xmlns="http://www.w3.org/2000/svg">
<path d="M7.99995 4.51054L7.18968 3.39006C6.94123 3.0465 6.6662 2.76153 6.37179 2.53386L6.37174 2.53382C5.79877 2.09069 5.16721 1.875 4.4696 1.875C3.5098 1.875 2.64097 2.25551 2.00445 2.94583L7.99995 4.51054ZM7.99995 4.51054L8.81029 3.39011M7.99995 4.51054L8.81029 3.39011M8.81029 3.39011C9.05885 3.04642 9.33377 2.76156 9.62808 2.53387L8.81029 3.39011ZM6.20794 12.5491L6.20799 12.5491L6.21093 12.5516C6.74901 13.0102 7.36215 13.5328 8.00002 14.0899C8.63302 13.5369 9.24202 13.0178 9.77724 12.5616L9.79235 12.5488L9.79244 12.5487C11.4267 11.156 12.7422 10.0308 13.6432 8.94347L13.6433 8.94342C14.6159 7.76984 15 6.74939 15 5.68335C15 4.59577 14.628 3.63201 13.9955 2.94592C13.359 2.25552 12.4902 1.875 11.5304 1.875C10.8329 1.875 10.2013 2.09065 9.62821 2.53377L6.20794 12.5491ZM6.20794 12.5491C4.57342 11.1562 3.25796 10.0308 2.35685 8.94355C1.38413 7.76977 1 6.74932 1 5.68347C1 4.59578 1.37199 3.63202 2.00436 2.94592L6.20794 12.5491Z" stroke="#8291A3" stroke-width="2"/>
</svg>
